<?xml version="1.0" standalone="no"?>
<!DOCTYPE svg PUBLIC "-//W3C//DTD SVG 20010904//EN"
 "http://www.w3.org/TR/2001/REC-SVG-20010904/DTD/svg10.dtd">
<svg version="1.0" xmlns="http://www.w3.org/2000/svg"
 width="512.000000pt" height="512.000000pt" viewBox="0 0 512.000000 512.000000"
 preserveAspectRatio="xMidYMid meet">
<metadata>
Created by potrace 1.11, written by Peter Selinger 2001-2013
</metadata>
<g transform="translate(0.000000,512.000000) scale(0.100000,-0.100000)"
fill="#000000" stroke="none">
<path d="M1846 4430 c-340 -39 -625 -172 -850 -396 -174 -175 -243 -344 -233
-574 10 -211 63 -338 196 -471 150 -150 339 -258 815 -463 424 -184 510 -234
715 -415 122 -107 210 -246 244 -381 28 -110 -11 -276 -97 -414 -124 -199
-335 -321 -620 -356 -123 -16 -399 -8 -516 15 -219 42 -473 142 -678 266 -35
22 -66 39 -68 39 -2 0 -4 -79 -4 -175 l0 -176 64 -29 c185 -82 461 -166 646
-194 282 -44 587 -24 844 55 206 63 373 160 526 306 192 182 282 394 282 663
0 149 -21 241 -83 370 -35 72 -58 101 -148 191 -66 66 -142 129 -200 167 l-95
62 667 0 667 0 0 -517 c0 -382 -5 -615 -20 -888 -11 -203 -20 -382 -20 -397
l0 -28 219 0 219 0 -4 63 c-25 385 -34 859 -34 1817 0 903 3 1096 20 1420 11
206 20 392 20 413 l0 37 -218 0 -218 0 3 -57 c20 -350 33 -834 33 -1202 l0
-451 -873 0 -874 0 -194 86 c-107 47 -225 97 -264 110 -236 82 -456 247 -525
396 -79 170 -52 378 71 563 70 104 164 187 274 240 137 66 213 80 445 80 208
0 282 -10 439 -62 101 -33 319 -139 405 -196 38 -26 70 -47 72 -47 2 0 4 79 4
175 0 156 -2 175 -17 184 -37 19 -233 81 -348 110 -223 56 -511 81 -689 61z"/>
</g>
</svg>
